<svg xmlns:xlink="http://www.w3.org/1999/xlink" xmlns="http://www.w3.org/2000/svg" width="200" height="125.77620951844781" viewBox="0 0 200 125.77620951844781" class="css-1j8o68f"><defs id="SvgjsDefs1001"></defs><g id="SvgjsG1007" featurekey="HKaMnE-0" transform="matrix(1.1335857736507555,0,0,1.1335857736507555,42.43813740524299,-16.448144971879596)" fill="#0F81C7"><g xmlns="http://www.w3.org/2000/svg" fill="#0F81C7"><path fill="#0F81C7" d="M67.539,22.815H20.016c-1.04,0-1.884-0.844-1.884-1.885c0-1.041,0.844-1.885,1.884-1.885h47.523   c1.04,0,1.885,0.844,1.885,1.885C69.424,21.972,68.579,22.815,67.539,22.815z"></path></g><g xmlns="http://www.w3.org/2000/svg" fill="#0F81C7"><path fill="#0F81C7" d="M38.493,34.586H20.016c-1.04,0-1.884-0.844-1.884-1.885c0-1.042,0.844-1.886,1.884-1.886h18.477   c1.042,0,1.885,0.844,1.885,1.886C40.378,33.742,39.534,34.586,38.493,34.586z"></path></g><g xmlns="http://www.w3.org/2000/svg" fill="#0F81C7"><path fill="#0F81C7" d="M54.605,58.169h-34.59c-1.04,0-1.884-0.843-1.884-1.885c0-1.04,0.844-1.885,1.884-1.885h34.59   c1.042,0,1.887,0.845,1.887,1.885C56.492,57.326,55.647,58.169,54.605,58.169z"></path></g><g xmlns="http://www.w3.org/2000/svg" fill="#0F81C7"><path fill="#0F81C7" d="M83.118,58.169H63.503c-1.04,0-1.884-0.843-1.884-1.885c0-1.04,0.844-1.885,1.884-1.885h19.615   c1.041,0,1.885,0.845,1.885,1.885C85.003,57.326,84.159,58.169,83.118,58.169z"></path></g><g xmlns="http://www.w3.org/2000/svg" fill="#0F81C7"><path fill="#0F81C7" d="M82.701,46.36H20.016c-1.04,0-1.884-0.844-1.884-1.885c0-1.042,0.844-1.884,1.884-1.884h62.686   c1.041,0,1.886,0.843,1.886,1.884C84.587,45.517,83.742,46.36,82.701,46.36z"></path></g><g xmlns="http://www.w3.org/2000/svg" fill="#0F81C7"><path fill="#0F81C7" d="M12.909,27.367c-0.496,0-0.991-0.194-1.361-0.582l-4.355-4.552c-0.694-0.726-0.697-1.87-0.005-2.6   l4.297-4.535c0.717-0.756,1.91-0.787,2.666-0.071c0.754,0.716,0.788,1.909,0.072,2.665l-3.064,3.232l3.115,3.254   c0.718,0.753,0.691,1.946-0.06,2.666C13.847,27.193,13.378,27.367,12.909,27.367z"></path></g><g xmlns="http://www.w3.org/2000/svg" fill="#0F81C7"><path fill="#0F81C7" d="M12.909,74.438c-0.496,0-0.991-0.193-1.361-0.581l-4.355-4.552c-0.694-0.729-0.697-1.872-0.005-2.602   l4.297-4.531c0.718-0.755,1.91-0.787,2.666-0.071c0.754,0.717,0.787,1.907,0.072,2.663l-3.064,3.23l3.115,3.254   c0.718,0.754,0.691,1.946-0.06,2.664C13.847,74.264,13.378,74.438,12.909,74.438z"></path></g><g xmlns="http://www.w3.org/2000/svg" fill="#0F81C7"><path fill="#0F81C7" d="M71.189,86.221c-0.466,0-0.933-0.172-1.297-0.518c-0.756-0.715-0.787-1.909-0.071-2.665l3.063-3.229   l-3.113-3.258c-0.721-0.752-0.693-1.944,0.06-2.665c0.752-0.719,1.944-0.692,2.665,0.061l4.354,4.555   c0.694,0.726,0.696,1.869,0.006,2.599l-4.299,4.534C72.187,86.022,71.688,86.221,71.189,86.221z"></path></g><g xmlns="http://www.w3.org/2000/svg" fill="#0F81C7"><path fill="#0F81C7" d="M88.704,62.324c-0.466,0-0.932-0.171-1.297-0.517c-0.756-0.716-0.788-1.909-0.072-2.665l3.063-3.232   l-3.112-3.253c-0.72-0.752-0.692-1.945,0.059-2.666c0.751-0.718,1.945-0.693,2.665,0.06l4.354,4.551   c0.694,0.725,0.697,1.869,0.006,2.599l-4.297,4.534C89.702,62.128,89.203,62.324,88.704,62.324z"></path></g><g xmlns="http://www.w3.org/2000/svg" fill="#0F81C7"><path fill="#0F81C7" d="M44.114,69.901H20.016c-1.04,0-1.884-0.842-1.884-1.885c0-1.04,0.844-1.884,1.884-1.884h24.098   c1.041,0,1.885,0.844,1.885,1.884C45.999,69.06,45.154,69.901,44.114,69.901z"></path></g><g xmlns="http://www.w3.org/2000/svg" fill="#0F81C7"><path fill="#0F81C7" d="M82.701,69.895H52.978c-1.041,0-1.885-0.844-1.885-1.884c0-1.044,0.844-1.886,1.885-1.886h29.724   c1.041,0,1.886,0.842,1.886,1.886C84.587,69.051,83.742,69.895,82.701,69.895z"></path></g><g xmlns="http://www.w3.org/2000/svg" fill="#0F81C7"><path fill="#0F81C7" d="M65.816,81.679H20.016c-1.04,0-1.884-0.845-1.884-1.886c0-1.042,0.844-1.886,1.884-1.886h45.801   c1.042,0,1.886,0.844,1.886,1.886C67.702,80.834,66.858,81.679,65.816,81.679z"></path></g></g><g id="SvgjsG1008" featurekey="nameFeature-0" transform="matrix(1.7958316980489415,0,0,1.7958316980489415,-1.3763783614899106,89.64649934279208)" fill="#111111"><path d="M0.86441 17.6442 l0.96576 -1.1188 c0.20339 -0.23746 0.45763 -0.23746 0.64407 -0.10186 c0.55932 0.47458 1.5593 1.3729 2.8136 1.3729 c1.2203 0 2.2712 -0.4578 2.2712 -1.5086 c0 -1.1017 -1.1356 -1.4237 -2.3051 -1.8983 c-2.4237 -1 -4.1864 -2.0339 -4.1864 -4.2373 c0 -1.7288 1.2712 -3.8136 4.339 -3.8136 c2.0847 0 3.5934 1.1866 4.0341 1.6273 c0.18644 0.18644 0.28814 0.42373 0.11864 0.62712 l-0.84746 1.1186 c-0.16966 0.22034 -0.40678 0.32203 -0.67797 0.13559 c-0.54237 -0.42373 -1.4237 -1.2034 -2.6102 -1.2034 c-1.2034 0 -1.9492 0.69492 -1.9492 1.5085 c0 0.89831 0.77966 1.339 2.0508 1.8475 c2.2203 0.93254 4.4407 1.9325 4.4407 4.3224 c0 1.9831 -1.9659 3.7964 -4.6439 3.7964 c-2.4237 0 -3.9322 -1.5422 -4.3559 -1.949 c-0.15254 -0.13559 -0.30508 -0.32203 -0.10169 -0.52542 z M23.033813559322034 6.441000000000001 c0.18644 0 0.33881 0.15254 0.33881 0.32203 l0 12.898 c0 0.20339 -0.13559 0.33881 -0.30525 0.33881 l-1.288 0 c-0.54237 0 -0.84763 -0.37288 -0.84763 -0.86441 l0 -4.5422 l-6.5085 0 l0 5.0678 c0 0.16949 -0.13559 0.33881 -0.32203 0.33881 l-1.7627 0 c-0.18644 0 -0.33898 -0.15238 -0.33898 -0.33881 l0 -12.898 c0 -0.16949 0.13559 -0.32203 0.3222 -0.32203 l1.7627 0 c0.18644 0 0.33898 0.15254 0.33898 0.32203 l0 5.3898 l6.5085 0 l0 -5.3898 c0 -0.16949 0.13559 -0.32203 0.33898 -0.32203 l1.7629 0 z M32.59306779661017 20.11864 c3.7966 0 6.8983 -3.0507 6.8983 -6.9151 c0 -3.8305 -3.1017 -6.8814 -6.8983 -6.8814 c-3.8305 0 -6.9322 3.0508 -6.9322 6.8814 c0 3.8644 3.1017 6.9151 6.9322 6.9151 z M32.59306779661017 17.7798 c-2.4407 0 -4.5085 -2.1017 -4.5085 -4.5763 c0 -2.4576 2.0678 -4.5422 4.5085 -4.5422 s4.4915 2.0846 4.4915 4.5422 c0 2.4746 -2.0508 4.5763 -4.4915 4.5763 z M58.47450847457627 6.441000000000001 c0.18644 0 0.39032 0.15221 0.28863 0.38949 l-6.39 13 c-0.067797 0.13559 -0.20339 0.25407 -0.35576 0.25407 l-0.13559 0 c-0.16949 0 -0.30508 -0.11848 -0.37288 -0.25407 l-1.9831 -4.1695 l-2 4.1695 c-0.067797 0.13559 -0.18644 0.25407 -0.3561 0.25407 l-0.13559 0 c-0.16949 0 -0.30508 -0.11848 -0.35593 -0.25407 l-6.3898 -13.017 c-0.11881 -0.22017 0.10153 -0.37271 0.28797 -0.37271 l2.2203 0 c0.16949 0 0.25424 0.15254 0.33898 0.33898 l3.9659 8.4237 l1.0678 -2.3729 l-2.8812 -6.0169 c-0.10169 -0.22017 0.10169 -0.37271 0.28814 -0.37271 l2.2203 0 c0.18644 0 0.27119 0.15254 0.33898 0.32203 l1.3898 3.0678 l1.3729 -3.0508 c0.084746 -0.18644 0.16949 -0.33898 0.35593 -0.33898 l2.2034 0 c0.20339 0 0.40678 0.15254 0.28814 0.38983 l-2.8644 6 l1.0678 2.3729 l3.949 -8.4407 c0.084746 -0.16949 0.16949 -0.32203 0.35593 -0.32203 l2.2203 0 z M71.88133898305085 17.4578 c0.16949 0.13559 0.16933 0.30508 0.016784 0.45763 c-1.2542 1.3729 -3.0339 2.2032 -5.0678 2.2032 c-3.7288 0 -6.8475 -2.9998 -6.8475 -6.8642 c0 -3.8475 3.1186 -6.9322 6.8475 -6.9322 c2.0508 0 3.8475 0.84746 5.1186 2.2373 c0.15254 0.15254 0.13559 0.32203 -0.016949 0.45763 l-1.4068 1.1356 c-0.16966 0.13559 -0.32203 0.11864 -0.45763 -0.033898 c-0.72881 -0.76271 -1.8644 -1.4575 -3.2203 -1.4575 c-2.4915 0 -4.4405 2.1524 -4.4405 4.5931 c0 2.4746 1.949 4.5254 4.4405 4.5254 c1.339 0 2.4576 -0.66102 3.1695 -1.4068 c0.15254 -0.15254 0.30508 -0.16949 0.47458 -0.050847 z M80.28798305084746 20.11864 c3.7966 0 6.8983 -3.0507 6.8983 -6.9151 c0 -3.8305 -3.1017 -6.8814 -6.8983 -6.8814 c-3.8305 0 -6.9322 3.0508 -6.9322 6.8814 c0 3.8644 3.1017 6.9151 6.9322 6.9151 z M80.28798305084746 17.7798 c-2.4407 0 -4.5085 -2.1017 -4.5085 -4.5763 c0 -2.4576 2.0678 -4.5422 4.5085 -4.5422 s4.4915 2.0846 4.4915 4.5422 c0 2.4746 -2.0508 4.5763 -4.4915 4.5763 z M94.03368983050848 6.441000000000001 c4.4068 0 6.9661 3.5424 6.9661 6.7288 c0 3.6102 -2.5763 6.8303 -6.9661 6.8303 l-4.4746 0 c-0.18644 0 -0.33898 -0.15238 -0.33898 -0.33881 l0 -12.898 c0 -0.16949 0.13559 -0.32203 0.32203 -0.32203 l4.4915 0 z M94.03368983050848 17.6612 c2.7966 0 4.4746 -2.1866 4.4576 -4.5086 c0 -2.288 -1.5932 -4.3727 -4.4576 -4.3727 l-2.4068 0 l0.016949 8.8814 l2.3898 0 z M111.79660338983052 8.78 l-6.1697 -0.00033103 l0 3.4068 l3.322 0 c0.18644 0 0.33898 0.15254 0.33898 0.33915 l0 1.6778 c0 0.20339 -0.13559 0.3222 -0.33898 0.3222 l-3.322 0 l0 3.1356 l6.1695 0 c0.18644 0 0.33881 0.15238 0.33881 0.33881 l0 1.6613 c0 0.18644 -0.15238 0.33881 -0.33881 0.33881 l-8.2542 0 c-0.18644 0 -0.33898 -0.15238 -0.33898 -0.33881 l0 -12.898 c0 -0.16949 0.13559 -0.32203 0.3222 -0.32203 l8.2712 0 c0.18644 0 0.33881 0.15254 0.33881 0.32203 l0 1.6949 c0 0.18644 -0.15238 0.32203 -0.33881 0.32203 z" fill="#111111"></path></g></svg>