<?xml version="1.0" standalone="no"?>
<!DOCTYPE svg PUBLIC "-//W3C//DTD SVG 20010904//EN"
 "http://www.w3.org/TR/2001/REC-SVG-20010904/DTD/svg10.dtd">
<svg version="1.0" xmlns="http://www.w3.org/2000/svg"
 width="1240.000000pt" height="1240.000000pt" viewBox="0 0 1240.000000 1240.000000"
 preserveAspectRatio="xMidYMid meet">
<metadata>
Created by potrace 1.14, written by Peter Selinger 2001-2017
</metadata>
<g transform="translate(0.000000,1240.000000) scale(0.100000,-0.100000)"
fill="#000000" stroke="none">
<path d="M4228 10555 c-2 -1 -30 -6 -63 -10 -32 -3 -63 -9 -67 -11 -5 -3 -20
-8 -35 -10 -15 -3 -33 -10 -40 -16 -7 -6 -13 -8 -13 -4 0 3 -15 -3 -32 -14
-18 -11 -41 -20 -50 -20 -10 0 -18 -4 -18 -10 0 -5 -12 -13 -27 -16 -16 -4
-31 -12 -35 -18 -4 -6 -11 -11 -15 -12 -17 -2 -49 -18 -67 -33 -10 -9 -19 -14
-20 -12 -1 5 -14 -3 -140 -85 -164 -108 -212 -146 -338 -265 -26 -25 -48 -44
-48 -41 0 3 -9 -6 -21 -19 -62 -73 -89 -99 -98 -99 -6 0 -11 -4 -11 -8 0 -5
-9 -20 -21 -33 -35 -42 -129 -138 -129 -133 0 3 -12 -9 -27 -28 -15 -18 -32
-36 -38 -40 -22 -16 -2510 -2507 -2548 -2552 -23 -27 -50 -57 -59 -68 -10 -10
-18 -20 -18 -23 0 -3 -18 -31 -39 -63 -33 -48 -92 -163 -132 -257 -12 -30 -47
-155 -54 -195 -3 -19 -9 -55 -13 -80 -13 -83 -5 -401 11 -427 3 -5 8 -24 11
-43 6 -42 53 -184 72 -222 8 -16 12 -28 9 -28 -4 0 3 -13 14 -29 12 -16 21
-33 21 -38 0 -5 15 -32 34 -61 19 -28 32 -52 29 -52 -3 0 4 -8 15 -19 12 -10
22 -22 22 -26 0 -4 17 -29 37 -54 53 -65 3187 -3198 3248 -3246 28 -22 52 -43
53 -47 2 -5 7 -8 12 -8 5 0 32 -16 62 -35 80 -54 229 -120 320 -144 4 -1 22
-7 40 -12 18 -6 44 -12 58 -15 14 -2 36 -7 50 -10 95 -23 347 -22 465 1 101
20 138 30 230 64 101 38 295 150 366 213 118 104 193 187 263 293 47 71 125
222 131 256 2 11 7 25 12 32 4 6 8 17 9 22 1 6 11 44 22 85 11 41 24 100 29
130 15 102 6 430 -12 460 -2 4 -7 21 -10 38 -8 45 -72 232 -86 248 -6 8 -8 14
-3 14 5 0 5 4 -1 8 -5 4 -23 32 -39 62 -39 75 -93 155 -131 196 -18 19 -30 34
-28 34 8 0 -2044 2046 -2115 2110 -34 30 -61 59 -62 63 0 5 490 499 1089 1098
607 607 1114 1122 1144 1162 65 87 126 191 160 272 33 80 74 210 82 266 4 24
10 55 13 69 7 39 10 354 3 365 -4 6 -8 25 -10 44 -5 60 -60 237 -100 325 -38
82 -118 214 -147 243 -8 8 -14 17 -14 21 0 4 -33 41 -73 83 -124 131 -241 217
-387 287 -75 35 -117 51 -247 93 -17 5 -53 12 -78 15 -26 2 -52 7 -58 11 -11
7 -312 14 -319 8z"/>
<path d="M7929 10556 c-2 -2 -30 -6 -62 -10 -122 -13 -315 -72 -410 -125 -20
-11 -37 -19 -37 -16 0 7 -153 -96 -205 -139 -48 -39 -154 -143 -185 -182 -9
-11 -29 -37 -45 -59 -16 -22 -32 -42 -35 -45 -24 -24 -146 -275 -155 -320 -1
-3 -7 -25 -14 -50 -64 -223 -66 -502 -5 -709 9 -31 17 -60 19 -66 1 -5 6 -19
10 -30 4 -11 14 -35 21 -53 7 -18 13 -34 14 -37 0 -3 19 -40 41 -82 43 -81
127 -200 189 -267 65 -71 1978 -1980 2069 -2066 50 -46 91 -87 91 -91 0 -3
-490 -496 -1088 -1095 -598 -599 -1101 -1107 -1118 -1129 -16 -22 -34 -44 -40
-50 -21 -19 -94 -144 -133 -227 -47 -102 -81 -203 -96 -293 -2 -11 -7 -36 -11
-55 -9 -41 -10 -323 -2 -395 7 -54 41 -192 61 -240 6 -16 12 -32 13 -35 5 -25
55 -132 76 -163 11 -15 17 -27 14 -27 -9 0 87 -135 140 -197 64 -75 108 -116
201 -193 99 -81 353 -203 466 -224 15 -2 30 -7 34 -9 5 -3 28 -8 53 -11 25 -4
70 -10 100 -14 59 -9 241 -7 303 2 96 14 163 30 178 42 8 8 21 14 27 14 16 0
215 101 223 112 3 5 13 10 21 11 8 2 40 19 70 40 31 20 59 37 63 37 4 0 20 10
35 23 15 12 37 29 50 37 24 16 108 79 127 95 6 6 33 28 59 50 92 76 390 384
386 398 -1 4 2 6 7 5 5 -2 602 590 1326 1315 725 724 1315 1317 1312 1317 -3
0 6 12 20 28 31 32 133 186 133 200 0 5 7 15 15 22 8 6 14 15 13 18 -1 4 8 27
19 52 34 72 78 216 88 285 2 11 4 20 5 20 7 0 14 114 14 230 0 128 -4 171 -20
260 -7 39 -43 164 -54 190 -5 11 -21 49 -36 85 -15 36 -32 72 -38 80 -6 8 -17
25 -23 38 -7 12 -19 32 -25 45 -15 25 -101 140 -135 177 -12 14 -714 716
-1559 1560 -845 844 -1548 1548 -1563 1563 -29 32 -159 132 -206 159 -92 54
-199 104 -279 130 -91 30 -104 33 -161 43 -16 3 -43 8 -60 11 -35 7 -300 16
-306 10z"/>
</g>
</svg>
