<?xml version="1.0" standalone="no"?>
<!DOCTYPE svg PUBLIC "-//W3C//DTD SVG 20010904//EN"
 "http://www.w3.org/TR/2001/REC-SVG-20010904/DTD/svg10.dtd">
<svg version="1.0" xmlns="http://www.w3.org/2000/svg"
 width="904.000000pt" height="904.000000pt" viewBox="0 0 904.000000 904.000000"
 preserveAspectRatio="xMidYMid meet">
<metadata>
Created by potrace 1.14, written by Peter Selinger 2001-2017
</metadata>
<g transform="translate(0.000000,904.000000) scale(0.100000,-0.100000)"
fill="#000000" stroke="none">
<path d="M562 8187 c-27 -10 -142 -108 -142 -121 0 -2 -28 -33 -62 -68 -231
-239 -357 -378 -343 -378 4 0 3 -6 -3 -13 -14 -17 -9 -116 9 -149 13 -25 206
-232 424 -453 104 -105 121 -115 202 -115 20 0 57 12 83 26 56 30 89 83 97
153 8 81 -2 96 -257 360 -36 37 -75 79 -88 93 l-23 26 38 39 c164 169 291 310
306 340 77 148 -80 318 -241 260z"/>
<path d="M1295 7724 c-114 -39 -160 -186 -89 -287 16 -22 48 -50 72 -62 l43
-22 2473 1 c2080 1 2476 3 2489 15 10 7 17 10 17 5 0 -15 69 59 84 91 42 87 4
198 -85 250 -34 20 -53 20 -2500 21 -1991 1 -2473 -1 -2504 -12z"/>
<path d="M1301 6525 c-40 -13 -101 -62 -101 -80 0 -8 -4 -15 -8 -15 -5 0 -9
-6 -10 -12 -12 -80 -12 -102 -2 -134 16 -47 55 -91 102 -114 34 -16 96 -17
1031 -16 l995 1 43 30 c58 41 90 105 85 170 -6 73 -33 116 -101 161 -29 18
-56 19 -1016 19 -667 1 -997 -2 -1018 -10z"/>
<path d="M1317 5329 c-67 -18 -110 -57 -133 -121 -34 -97 5 -191 98 -239 36
-18 114 -19 3278 -19 3164 0 3242 1 3278 19 91 47 131 141 100 232 -12 36 -65
110 -76 107 -4 -1 -18 4 -32 12 -21 12 -479 14 -3258 15 -1777 0 -3242 -3
-3255 -6z"/>
<path d="M8325 4628 c-51 -11 -95 -41 -125 -87 -19 -28 -24 -49 -24 -96 0 -91
-8 -81 275 -373 89 -92 90 -94 72 -115 -10 -11 -57 -61 -104 -111 -158 -166
-179 -189 -179 -198 0 -5 -4 -7 -9 -4 -15 9 -53 -84 -53 -130 0 -23 5 -52 12
-63 6 -12 7 -21 3 -21 -13 0 61 -71 90 -86 15 -8 48 -17 73 -20 62 -6 117 20
179 85 28 29 75 79 105 111 351 368 350 368 356 439 7 74 -18 121 -122 227
-49 51 -154 160 -234 244 -80 84 -157 160 -171 171 -36 25 -97 37 -144 27z"/>
<path d="M1258 4097 c-76 -51 -107 -148 -74 -228 19 -45 53 -83 96 -105 33
-17 117 -18 1820 -19 982 0 1805 3 1829 7 147 26 203 214 95 322 -60 60 66 56
-1906 56 l-1813 -1 -47 -32z"/>
<path d="M5710 4107 c-49 -26 -96 -91 -103 -142 -9 -75 27 -148 97 -193 l41
-26 1050 0 1050 0 42 22 c104 54 136 202 62 286 -16 19 -45 44 -65 55 -34 20
-42 21 -1082 21 l-1047 0 -45 -23z"/>
<path d="M565 3384 c-41 -13 -57 -29 -366 -355 -161 -169 -194 -208 -185 -216
3 -3 1 -12 -5 -20 -8 -9 -9 -33 -5 -70 7 -64 20 -83 117 -185 405 -422 410
-426 452 -440 123 -41 242 39 252 170 7 84 -2 98 -257 360 -78 81 -107 117
-100 125 6 7 40 44 77 82 274 287 288 307 274 396 -19 123 -137 193 -254 153z"/>
<path d="M1340 2929 c-80 -11 -128 -48 -159 -126 -14 -34 -11 -101 7 -143 21
-49 76 -94 132 -106 8 -2 583 -4 1277 -4 1369 -1 1295 -4 1356 54 71 66 76
188 11 265 -11 13 -37 32 -59 44 -40 20 -43 20 -1280 21 -682 1 -1260 -2
-1285 -5z"/>
<path d="M4684 2927 c-8 -4 -14 -5 -14 -2 0 8 -50 -20 -76 -43 -37 -31 -58
-83 -58 -144 -1 -47 4 -63 29 -100 18 -25 49 -52 75 -65 l44 -23 1559 0 c1530
0 1558 0 1596 20 40 20 104 88 95 101 -2 4 -1 10 4 13 14 9 13 91 -2 127 -18
43 -54 82 -97 105 -32 17 -115 18 -1587 18 -854 1 -1560 -3 -1568 -7z"/>
<path d="M6520 2187 c-19 -6 -40 -16 -47 -22 -32 -27 -39 -34 -55 -54 -22 -26
-36 -86 -32 -130 5 -41 35 -100 66 -127 46 -41 293 -306 293 -315 0 -9 -83
-101 -230 -254 -96 -100 -121 -140 -124 -202 -6 -131 119 -224 254 -188 42 12
38 8 217 196 75 79 173 182 218 229 106 111 133 156 131 220 -1 48 -22 102
-52 133 -8 8 -93 97 -189 197 -276 289 -289 301 -323 311 -58 15 -91 17 -127
6z"/>
<path d="M1365 1729 c-119 -9 -180 -65 -192 -174 -4 -40 14 -115 27 -115 4 0
10 -8 12 -18 3 -10 27 -31 54 -47 l49 -29 2380 1 c2616 0 2416 -4 2477 60 87
92 62 239 -50 301 l-42 24 -2323 1 c-1277 1 -2353 -1 -2392 -4z"/>
</g>
</svg>
